<svg width="9" height="10" viewBox="0 0 9 10" fill="none" xmlns="http://www.w3.org/2000/svg">
<g clip-path="url(#clip0_43_1638)">
<path d="M3.375 0.78418C1.92969 0.78418 0.75 1.96387 0.75 3.40918C0.75 4.85449 1.92969 6.03418 3.375 6.03418C4.0305 6.03418 4.62938 5.78969 5.09033 5.38965L5.25 5.54932V6.03418L7.5 8.28418L8.25 7.53418L6 5.28418H5.51514L5.35547 5.12451C5.75551 4.66356 6 4.06468 6 3.40918C6 1.96387 4.82031 0.78418 3.375 0.78418ZM3.375 1.53418C4.41498 1.53418 5.25 2.3692 5.25 3.40918C5.25 4.44916 4.41498 5.28418 3.375 5.28418C2.33502 5.28418 1.5 4.44916 1.5 3.40918C1.5 2.3692 2.33502 1.53418 3.375 1.53418Z" fill="white"/>
</g>
<defs>
<clipPath id="clip0_43_1638">
<rect width="9" height="9" fill="white" transform="translate(0 0.0341797)"/>
</clipPath>
</defs>
</svg>
